<?xml version="1.0" standalone="no"?>
<!DOCTYPE svg PUBLIC "-//W3C//DTD SVG 20010904//EN"
 "http://www.w3.org/TR/2001/REC-SVG-20010904/DTD/svg10.dtd">
<svg version="1.0" xmlns="http://www.w3.org/2000/svg"
 width="300.000000pt" height="300.000000pt" viewBox="0 0 300.000000 300.000000"
 preserveAspectRatio="xMidYMid meet">
<metadata>
Created by potrace 1.14, written by Peter Selinger 2001-2017
</metadata>
<g transform="translate(0.000000,300.000000) scale(0.100000,-0.100000)"
fill="#000000" stroke="none">
<path d="M1523 1985 c-7 -21 211 -637 230 -649 8 -5 21 -7 29 -4 18 7 240 632
231 654 -4 10 -16 14 -41 12 -39 -3 -24 29 -147 -317 l-58 -163 -17 53 c-17
53 -132 378 -145 412 -9 22 -73 24 -82 2z"/>
<path d="M883 1972 c-153 -55 -231 -175 -221 -336 7 -98 38 -165 104 -225 54
-50 140 -89 170 -77 8 3 18 16 23 28 11 28 -8 53 -47 61 -64 14 -143 88 -156
147 -5 23 10 36 200 165 113 77 212 148 221 157 23 25 9 46 -43 70 -67 29
-184 34 -251 10z m152 -80 c-30 -27 -278 -192 -282 -188 -10 10 10 67 37 104
40 56 117 92 194 92 33 0 56 -4 51 -8z"/>
<path d="M2575 1972 c-70 -23 -156 -109 -180 -181 -41 -125 1 -286 99 -379 69
-66 125 -86 219 -80 128 8 222 78 266 197 27 74 27 139 -1 215 -28 80 -56 124
-113 174 -79 70 -183 89 -290 54z m201 -88 c143 -68 184 -322 67 -414 l-28
-22 -5 44 c-6 51 -35 110 -99 198 -75 105 -81 117 -81 165 l0 45 56 0 c31 0
71 -7 90 -16z m-191 -124 c9 -17 47 -79 86 -137 54 -82 69 -113 69 -141 -1
-45 -20 -72 -51 -72 -89 0 -171 65 -208 163 -38 104 -24 197 42 265 l32 33 7
-40 c4 -22 14 -54 23 -71z"/>
<path d="M12 1962 c-9 -7 -12 -77 -10 -318 l3 -309 35 0 35 0 5 233 5 234 32
28 c31 28 87 50 129 50 47 0 58 71 14 85 -24 8 -115 -10 -150 -29 -22 -13 -25
-12 -35 8 -11 22 -42 31 -63 18z"/>
<path d="M20 1185 c0 -3 7 -22 15 -42 8 -19 15 -55 15 -79 0 -24 5 -44 10 -44
6 0 10 17 10 39 0 21 7 58 15 81 17 48 11 66 -11 35 -14 -19 -16 -19 -25 -2
-9 16 -29 24 -29 12z"/>
<path d="M1687 1183 c-4 -3 -7 -42 -7 -85 0 -63 3 -78 15 -78 12 0 15 16 15
85 0 78 -5 96 -23 78z"/>
<path d="M1584 1166 c-10 -26 1 -139 14 -144 9 -3 12 17 12 77 0 49 -4 81 -10
81 -6 0 -13 -6 -16 -14z"/>
<path d="M2052 1168 c-21 -10 -23 -17 -20 -77 3 -64 4 -66 31 -69 l27 -3 0 80
c0 45 -3 81 -7 80 -5 0 -18 -5 -31 -11z m15 -105 c-2 -16 -4 -3 -4 27 0 30 2
43 4 28 2 -16 2 -40 0 -55z"/>
<path d="M2538 1170 c-1 -5 -2 -41 0 -80 3 -52 7 -70 18 -70 10 0 14 15 14 60
0 44 4 61 16 68 9 5 14 14 10 21 -9 14 -53 15 -58 1z"/>
<path d="M2667 1173 c-4 -3 -7 -39 -7 -80 0 -58 3 -73 15 -73 12 0 15 13 15
60 0 45 4 62 15 66 24 9 18 34 -8 34 -13 0 -27 -3 -30 -7z"/>
<path d="M172 1162 c-9 -6 -12 -28 -10 -73 3 -61 4 -64 28 -64 24 0 25 2 25
70 0 71 -10 88 -43 67z m25 -99 c-2 -16 -4 -3 -4 27 0 30 2 43 4 28 2 -16 2
-40 0 -55z"/>
<path d="M292 1098 c3 -71 4 -73 31 -76 l27 -3 0 75 c0 44 -4 76 -10 76 -6 0
-10 -28 -10 -65 0 -37 -4 -65 -10 -65 -6 0 -10 28 -10 65 0 38 -4 65 -10 65
-7 0 -10 -27 -8 -72z"/>
<path d="M420 1096 c0 -61 3 -76 15 -76 12 0 15 14 16 63 0 34 3 56 6 50 8
-22 25 -14 21 10 -2 16 -11 23 -30 25 l-28 3 0 -75z"/>
<path d="M670 1086 c0 -90 6 -100 41 -67 17 15 20 29 17 82 -3 62 -4 64 -30
67 l-28 3 0 -85z m37 -23 c-2 -16 -4 -3 -4 27 0 30 2 43 4 28 2 -16 2 -40 0
-55z"/>
<path d="M811 1156 c-7 -9 -11 -37 -9 -73 3 -55 4 -58 31 -61 23 -3 27 0 27
22 0 29 -16 35 -23 9 -3 -10 -5 -3 -6 15 -1 23 3 32 15 32 11 0 14 8 12 32 -3
36 -27 48 -47 24z m26 -28 c-3 -8 -6 -5 -6 6 -1 11 2 17 5 13 3 -3 4 -12 1
-19z"/>
<path d="M930 1095 c0 -60 3 -75 15 -75 12 0 15 14 16 63 0 34 3 56 6 50 6
-17 33 -17 33 0 0 20 -22 37 -47 37 -22 0 -23 -3 -23 -75z"/>
<path d="M1073 1163 c-21 -8 -15 -51 7 -58 15 -5 20 -15 19 -38 0 -18 -3 -26
-6 -19 -7 19 -35 15 -31 -5 2 -12 12 -18 28 -18 23 0 25 4 28 48 2 37 0 47
-12 47 -9 0 -16 4 -16 10 0 5 7 7 16 3 12 -4 15 -1 12 13 -3 19 -23 27 -45 17z"/>
<path d="M1202 1162 c-9 -6 -12 -28 -10 -73 3 -61 4 -64 28 -64 24 0 25 2 25
70 0 71 -10 88 -43 67z m25 -99 c-2 -16 -4 -3 -4 27 0 30 2 43 4 28 2 -16 2
-40 0 -55z"/>
<path d="M1320 1095 c0 -57 3 -76 13 -73 7 3 14 30 18 64 l6 59 1 -62 c1 -36
6 -63 12 -63 7 0 10 27 8 73 -3 70 -4 72 -30 75 l-28 3 0 -76z"/>
<path d="M1463 1163 c-7 -2 -13 -11 -13 -19 0 -8 6 -14 13 -14 9 0 9 -2 -1 -9
-9 -5 -12 -24 -10 -52 3 -42 5 -44 36 -47 l32 -3 0 63 c0 77 -15 98 -57 81z
m24 -110 c-3 -10 -5 -2 -5 17 0 19 2 27 5 18 2 -10 2 -26 0 -35z"/>
<path d="M1780 1155 c0 -8 5 -15 11 -15 7 0 9 -11 5 -30 -3 -16 -9 -43 -12
-60 -6 -27 -4 -30 20 -30 26 0 36 15 15 22 -8 3 -8 14 0 43 18 65 15 85 -14
85 -16 0 -25 -6 -25 -15z"/>
<path d="M1912 1162 c-9 -6 -12 -28 -10 -73 3 -62 4 -64 31 -67 23 -3 27 0 27
22 0 29 -16 35 -23 9 -3 -10 -5 -3 -6 15 -1 23 3 32 15 32 11 0 14 8 12 32 -3
34 -22 45 -46 30z"/>
<path d="M2292 1162 c-9 -6 -12 -28 -10 -73 3 -61 4 -64 28 -64 18 0 26 6 28
23 4 26 -14 30 -21 5 -3 -10 -5 7 -5 37 0 30 2 49 5 43 8 -22 25 -14 21 9 -3
24 -25 33 -46 20z"/>
<path d="M2422 1162 c-9 -6 -12 -28 -10 -73 3 -61 4 -64 28 -64 24 0 25 2 25
70 0 71 -10 88 -43 67z m25 -99 c-2 -16 -4 -3 -4 27 0 30 2 43 4 28 2 -16 2
-40 0 -55z"/>
<path d="M2797 1163 c-4 -3 -7 -37 -7 -75 l0 -69 28 3 c19 2 27 9 27 22 0 25
-22 32 -28 9 -3 -10 -5 -3 -6 15 -1 26 3 32 19 32 14 0 20 7 20 23 0 35 -33
60 -53 40z m20 -35 c-3 -8 -6 -5 -6 6 -1 11 2 17 5 13 3 -3 4 -12 1 -19z"/>
<path d="M2922 1158 c-14 -14 -16 -106 -3 -126 13 -21 56 -11 56 12 0 25 -22
32 -28 9 -3 -10 -5 -5 -6 13 -1 24 4 33 19 37 33 8 20 67 -15 67 -6 0 -16 -5
-23 -12z m25 -30 c-3 -8 -6 -5 -6 6 -1 11 2 17 5 13 3 -3 4 -12 1 -19z"/>
</g>
</svg>
